<?xml version="1.0" standalone="no"?>
<!DOCTYPE svg PUBLIC "-//W3C//DTD SVG 20010904//EN"
 "http://www.w3.org/TR/2001/REC-SVG-20010904/DTD/svg10.dtd">
<svg version="1.0" xmlns="http://www.w3.org/2000/svg"
 width="85.000000pt" height="63.000000pt" viewBox="0 0 85.000000 63.000000"
 preserveAspectRatio="xMidYMid meet">
<metadata>
Created by potrace 1.16, written by Peter Selinger 2001-2019
</metadata>
<g transform="translate(0.000000,63.000000) scale(0.050000,-0.046667)"
fill="#000000" stroke="none">
<path d="M1176 1193 c-50 -28 -95 -77 -83 -89 4 -4 14 -1 22 6 9 7 42 15 73
16 93 5 174 -43 208 -125 20 -47 20 -121 0 -159 -23 -45 0 -42 45 6 46 48 64
93 64 162 -1 45 -6 64 -34 105 -47 72 -88 96 -175 101 -64 4 -76 2 -120 -23z"/>
<path d="M670 838 c0 -50 5 -67 25 -94 14 -18 33 -35 42 -38 24 -8 27 -126 3
-126 -17 0 -191 165 -209 197 -6 12 -11 33 -11 47 0 50 -80 75 -114 37 -32
-35 -18 -121 19 -121 8 0 28 -17 45 -37 26 -33 28 -38 13 -41 -31 -5 -67 -38
-60 -55 12 -31 70 -50 190 -60 196 -17 407 16 407 65 0 11 -19 25 -51 40 -47
22 -50 25 -44 53 13 69 10 155 -7 155 -7 0 -29 -17 -48 -38 -19 -21 -29 -31
-22 -22 22 29 7 90 -22 90 -18 0 -46 -33 -46 -53 0 -12 -12 -4 -36 23 -20 22
-45 40 -55 40 -17 0 -19 -8 -19 -62z"/>
<path d="M1550 729 c0 -6 -22 -51 -50 -99 -27 -49 -52 -100 -55 -114 -3 -14
-7 -37 -10 -51 -3 -14 -12 -25 -19 -25 -16 0 -36 -50 -36 -90 0 -29 31 -65 45
-53 4 5 -3 -7 -16 -26 -16 -23 -49 -45 -99 -69 -68 -32 -83 -35 -165 -35 -80
-1 -98 3 -158 31 -37 17 -70 37 -73 45 -3 10 -15 14 -32 11 -15 -2 -62 -4
-104 -4 -68 -1 -78 -3 -78 -19 0 -10 -7 -24 -15 -31 -13 -11 -15 -8 -15 18 0
33 -19 43 -64 35 -34 -7 -51 -36 -36 -62 9 -19 21 -20 168 -19 86 0 162 5 168
10 12 9 64 -9 64 -22 0 -4 19 -13 42 -20 24 -8 48 -17 53 -21 21 -14 173 -10
221 6 59 20 123 57 154 89 l23 25 25 -19 c13 -11 38 -20 54 -20 30 0 108 43
108 61 0 5 5 7 10 4 6 -4 10 7 10 24 0 28 -3 31 -32 33 -18 0 -40 1 -49 0 -10
-1 -2 13 23 37 21 21 38 48 38 60 0 11 5 21 10 21 6 0 10 27 10 60 0 33 -3 60
-8 60 -4 0 -16 29 -26 65 -10 35 -25 70 -32 76 -8 6 -14 18 -14 25 0 8 -9 14
-20 14 -11 0 -20 -5 -20 -11z"/>
<path d="M98 529 c-20 -11 -24 -44 -7 -55 11 -7 7 -90 -7 -156 -6 -27 -5 -28
31 -28 30 0 36 3 31 16 -3 9 -8 26 -10 37 -2 12 -1 16 1 10 7 -19 31 -16 37 5
3 9 3 -2 1 -25 l-5 -43 41 0 c40 0 41 0 34 33 l-6 32 16 -32 c30 -57 94 -52
120 10 l13 32 11 -27 c13 -35 54 -62 81 -53 12 4 30 21 41 38 l20 32 -6 -32
c-6 -32 -6 -33 30 -33 36 0 36 1 30 33 -5 28 -4 27 15 -12 17 -38 23 -42 33
-30 23 25 36 65 26 80 -10 17 -10 94 1 129 l7 25 8 -29 c4 -15 5 -65 3 -111
l-6 -83 49 -4 c27 -1 72 -1 99 0 l51 4 -7 36 -6 37 19 -35 c14 -27 25 -36 50
-38 47 -5 82 24 83 66 0 18 4 41 9 51 12 22 2 38 -24 38 -53 -1 -75 4 -75 17
0 25 18 28 40 6 26 -26 50 -12 50 30 0 24 -5 28 -40 34 -50 8 -77 -6 -96 -47
l-14 -32 6 38 6 37 -39 0 -39 0 2 -107 c1 -60 0 -93 -3 -75 -5 39 -15 40 -43
5 l-21 -28 4 103 4 102 -69 0 -70 0 6 -32 6 -33 -13 35 c-16 41 -38 49 -66 21
-14 -14 -21 -16 -24 -7 -3 8 -18 16 -32 20 -32 8 -61 -13 -79 -56 l-12 -28
-17 39 c-30 66 -76 65 -119 -4 l-20 -30 7 38 c6 37 6 37 -30 37 -30 0 -35 -3
-35 -23 0 -38 -14 -41 -26 -5 -12 36 -29 44 -56 27z"/>
<path d="M1049 521 c-20 -16 -21 -21 -10 -34 14 -17 12 -148 -3 -179 -7 -16
-1 -18 66 -18 l75 0 -3 108 c-3 89 -2 101 8 75 13 -39 25 -42 38 -10 7 16 9
-6 7 -76 l-3 -98 35 3 34 3 -2 85 c-1 61 1 81 9 70 9 -13 11 -13 20 0 5 8 10
31 10 50 l0 35 -98 0 c-53 0 -102 -4 -109 -8 -6 -4 -14 -3 -18 3 -9 15 -30 12
-56 -9z"/>
<path d="M85 210 l0 -40 67 0 c48 0 68 4 68 13 0 8 3 9 8 1 10 -16 164 -17
174 -1 6 9 8 9 8 0 0 -9 18 -13 55 -13 49 0 55 2 55 21 0 19 -2 20 -16 8 -15
-13 -17 -11 -12 19 4 28 2 32 -17 32 -18 0 -21 -5 -18 -32 l3 -33 -17 33 c-19
37 -39 41 -49 10 l-7 -23 -8 22 c-7 20 -14 21 -151 22 l-143 1 0 -40z"/>
</g>
</svg>
